<svg width="217" height="70" viewBox="0 0 217 70" fill="none" xmlns="http://www.w3.org/2000/svg">
<path d="M90.22 27.045L87.451 19.804C87.2517 19.31 87.0523 18.686 86.853 17.932C86.7577 18.3047 86.658 18.6513 86.554 18.972C86.4587 19.2927 86.3633 19.5787 86.268 19.83L83.512 27.045H90.22ZM95.693 34H93.561C93.3183 34 93.119 33.9393 92.963 33.818C92.807 33.6967 92.6943 33.5407 92.625 33.35L90.974 29.021H82.745L81.094 33.35C81.0333 33.5147 80.9207 33.6663 80.756 33.805C80.5913 33.935 80.392 34 80.158 34H78.026L85.462 15.332H88.257L95.693 34ZM99.8319 22.625C100.118 22.3217 100.417 22.0443 100.729 21.793C101.041 21.5417 101.37 21.3293 101.717 21.156C102.072 20.974 102.449 20.8353 102.848 20.74C103.255 20.636 103.689 20.584 104.148 20.584C104.876 20.584 105.513 20.7053 106.059 20.948C106.614 21.1907 107.077 21.533 107.45 21.975C107.823 22.4083 108.104 22.9327 108.295 23.548C108.486 24.1633 108.581 24.8437 108.581 25.589V34H106.033V25.589C106.033 24.6443 105.816 23.912 105.383 23.392C104.95 22.8633 104.287 22.599 103.394 22.599C102.744 22.599 102.133 22.755 101.561 23.067C100.998 23.3703 100.473 23.7863 99.9879 24.315V34H97.4529V20.792H98.9739C99.3292 20.792 99.5502 20.961 99.6369 21.299L99.8319 22.625ZM119.1 28.137C118.068 28.1717 117.193 28.254 116.474 28.384C115.754 28.5053 115.169 28.67 114.719 28.878C114.268 29.086 113.943 29.333 113.744 29.619C113.544 29.8963 113.445 30.2083 113.445 30.555C113.445 30.8843 113.497 31.1703 113.601 31.413C113.713 31.647 113.861 31.842 114.043 31.998C114.233 32.1453 114.454 32.2537 114.706 32.323C114.957 32.3923 115.23 32.427 115.525 32.427C115.915 32.427 116.27 32.388 116.591 32.31C116.92 32.232 117.228 32.1237 117.514 31.985C117.8 31.8377 118.073 31.66 118.333 31.452C118.593 31.244 118.848 31.0057 119.1 30.737V28.137ZM111.664 22.638C112.4 21.936 113.198 21.4117 114.056 21.065C114.922 20.7183 115.871 20.545 116.903 20.545C117.657 20.545 118.324 20.6707 118.905 20.922C119.485 21.1647 119.975 21.507 120.374 21.949C120.772 22.391 121.071 22.9197 121.271 23.535C121.479 24.1503 121.583 24.8307 121.583 25.576V34H120.452C120.2 34 120.01 33.961 119.88 33.883C119.75 33.7963 119.646 33.6403 119.568 33.415L119.295 32.258C118.957 32.57 118.623 32.8473 118.294 33.09C117.964 33.324 117.618 33.5277 117.254 33.701C116.898 33.8657 116.517 33.9913 116.11 34.078C115.702 34.1647 115.252 34.208 114.758 34.208C114.238 34.208 113.748 34.1387 113.289 34C112.838 33.8527 112.444 33.6317 112.106 33.337C111.768 33.0423 111.499 32.674 111.3 32.232C111.109 31.79 111.014 31.2743 111.014 30.685C111.014 30.165 111.152 29.6667 111.43 29.19C111.716 28.7047 112.175 28.2713 112.808 27.89C113.449 27.5087 114.281 27.1967 115.304 26.954C116.335 26.7113 117.6 26.5727 119.1 26.538V25.576C119.1 24.5793 118.887 23.834 118.463 23.34C118.038 22.846 117.414 22.599 116.591 22.599C116.036 22.599 115.568 22.6683 115.187 22.807C114.814 22.9457 114.489 23.1017 114.212 23.275C113.943 23.4397 113.705 23.5913 113.497 23.73C113.297 23.8687 113.089 23.938 112.873 23.938C112.699 23.938 112.548 23.8903 112.418 23.795C112.296 23.6997 112.197 23.587 112.119 23.457L111.664 22.638ZM127.355 22.625C127.641 22.3217 127.94 22.0443 128.252 21.793C128.564 21.5417 128.894 21.3293 129.24 21.156C129.596 20.974 129.973 20.8353 130.371 20.74C130.779 20.636 131.212 20.584 131.671 20.584C132.399 20.584 133.036 20.7053 133.582 20.948C134.137 21.1907 134.601 21.533 134.973 21.975C135.346 22.4083 135.628 22.9327 135.818 23.548C136.009 24.1633 136.104 24.8437 136.104 25.589V34H133.556V25.589C133.556 24.6443 133.34 23.912 132.906 23.392C132.473 22.8633 131.81 22.599 130.917 22.599C130.267 22.599 129.656 22.755 129.084 23.067C128.521 23.3703 127.997 23.7863 127.511 24.315V34H124.976V20.792H126.497C126.853 20.792 127.074 20.961 127.16 21.299L127.355 22.625ZM148.04 23.99C147.624 23.444 147.173 23.0627 146.688 22.846C146.211 22.6293 145.674 22.521 145.076 22.521C143.915 22.521 143.013 22.9413 142.372 23.782C141.739 24.614 141.423 25.8317 141.423 27.435C141.423 28.2757 141.492 28.995 141.631 29.593C141.778 30.1823 141.986 30.6677 142.255 31.049C142.532 31.4217 142.87 31.699 143.269 31.881C143.668 32.0543 144.118 32.141 144.621 32.141C145.358 32.141 145.995 31.9763 146.532 31.647C147.069 31.3177 147.572 30.854 148.04 30.256V23.99ZM150.588 14.812V34H149.054C148.699 34 148.478 33.831 148.391 33.493L148.17 31.972C147.607 32.6393 146.965 33.1767 146.246 33.584C145.535 33.9827 144.712 34.182 143.776 34.182C143.022 34.182 142.337 34.0347 141.722 33.74C141.115 33.4453 140.595 33.0163 140.162 32.453C139.729 31.881 139.395 31.1747 139.161 30.334C138.927 29.4933 138.81 28.527 138.81 27.435C138.81 26.4557 138.94 25.5457 139.2 24.705C139.46 23.8643 139.837 23.1363 140.331 22.521C140.825 21.9057 141.423 21.4247 142.125 21.078C142.827 20.7227 143.62 20.545 144.504 20.545C145.301 20.545 145.977 20.675 146.532 20.935C147.095 21.195 147.598 21.5633 148.04 22.04V14.812H150.588ZM161.223 28.137C160.191 28.1717 159.316 28.254 158.597 28.384C157.877 28.5053 157.292 28.67 156.842 28.878C156.391 29.086 156.066 29.333 155.867 29.619C155.667 29.8963 155.568 30.2083 155.568 30.555C155.568 30.8843 155.62 31.1703 155.724 31.413C155.836 31.647 155.984 31.842 156.166 31.998C156.356 32.1453 156.577 32.2537 156.829 32.323C157.08 32.3923 157.353 32.427 157.648 32.427C158.038 32.427 158.393 32.388 158.714 32.31C159.043 32.232 159.351 32.1237 159.637 31.985C159.923 31.8377 160.196 31.66 160.456 31.452C160.716 31.244 160.971 31.0057 161.223 30.737V28.137ZM153.787 22.638C154.523 21.936 155.321 21.4117 156.179 21.065C157.045 20.7183 157.994 20.545 159.026 20.545C159.78 20.545 160.447 20.6707 161.028 20.922C161.608 21.1647 162.098 21.507 162.497 21.949C162.895 22.391 163.194 22.9197 163.394 23.535C163.602 24.1503 163.706 24.8307 163.706 25.576V34H162.575C162.323 34 162.133 33.961 162.003 33.883C161.873 33.7963 161.769 33.6403 161.691 33.415L161.418 32.258C161.08 32.57 160.746 32.8473 160.417 33.09C160.087 33.324 159.741 33.5277 159.377 33.701C159.021 33.8657 158.64 33.9913 158.233 34.078C157.825 34.1647 157.375 34.208 156.881 34.208C156.361 34.208 155.871 34.1387 155.412 34C154.961 33.8527 154.567 33.6317 154.229 33.337C153.891 33.0423 153.622 32.674 153.423 32.232C153.232 31.79 153.137 31.2743 153.137 30.685C153.137 30.165 153.275 29.6667 153.553 29.19C153.839 28.7047 154.298 28.2713 154.931 27.89C155.572 27.5087 156.404 27.1967 157.427 26.954C158.458 26.7113 159.723 26.5727 161.223 26.538V25.576C161.223 24.5793 161.01 23.834 160.586 23.34C160.161 22.846 159.537 22.599 158.714 22.599C158.159 22.599 157.691 22.6683 157.31 22.807C156.937 22.9457 156.612 23.1017 156.335 23.275C156.066 23.4397 155.828 23.5913 155.62 23.73C155.42 23.8687 155.212 23.938 154.996 23.938C154.822 23.938 154.671 23.8903 154.541 23.795C154.419 23.6997 154.32 23.587 154.242 23.457L153.787 22.638Z" fill="#191919"/>
<path d="M85.8109 48.3589C85.7576 48.4495 85.7016 48.5162 85.6429 48.5589C85.5843 48.6015 85.5096 48.6229 85.4189 48.6229C85.3229 48.6229 85.2136 48.5802 85.0909 48.4949C84.9683 48.4042 84.8136 48.3055 84.6269 48.1989C84.4456 48.0869 84.2269 47.9882 83.9709 47.9029C83.7149 47.8122 83.4083 47.7669 83.0509 47.7669C82.7149 47.7669 82.4189 47.8122 82.1629 47.9029C81.9123 47.9882 81.7016 48.1082 81.5309 48.2629C81.3603 48.4122 81.2296 48.5909 81.1389 48.7989C81.0536 49.0015 81.0109 49.2229 81.0109 49.4629C81.0109 49.7722 81.0883 50.0282 81.2429 50.2309C81.4029 50.4335 81.6109 50.6069 81.8669 50.7509C82.1229 50.8949 82.4136 51.0202 82.7389 51.1269C83.0643 51.2335 83.3976 51.3455 83.7389 51.4629C84.0803 51.5749 84.4136 51.7055 84.7389 51.8549C85.0643 52.0042 85.3549 52.1935 85.6109 52.4229C85.8669 52.6469 86.0723 52.9242 86.2269 53.2549C86.3869 53.5802 86.4669 53.9802 86.4669 54.4549C86.4669 54.9615 86.3789 55.4362 86.2029 55.8789C86.0323 56.3215 85.7816 56.7082 85.4509 57.0389C85.1203 57.3695 84.7123 57.6309 84.2269 57.8229C83.7469 58.0095 83.2003 58.1029 82.5869 58.1029C82.2189 58.1029 81.8616 58.0655 81.5149 57.9909C81.1683 57.9215 80.8403 57.8229 80.5309 57.6949C80.2216 57.5615 79.9309 57.4042 79.6589 57.2229C79.3923 57.0362 79.1523 56.8282 78.9389 56.5989L79.4269 55.7829C79.4749 55.7189 79.5309 55.6655 79.5949 55.6229C79.6643 55.5802 79.7416 55.5589 79.8269 55.5589C79.9389 55.5589 80.0669 55.6175 80.2109 55.7349C80.3603 55.8522 80.5416 55.9829 80.7549 56.1269C80.9736 56.2655 81.2323 56.3935 81.5309 56.5109C81.8349 56.6282 82.2029 56.6869 82.6349 56.6869C82.9869 56.6869 83.3016 56.6415 83.5789 56.5509C83.8563 56.4549 84.0883 56.3215 84.2749 56.1509C84.4669 55.9749 84.6136 55.7642 84.7149 55.5189C84.8163 55.2735 84.8669 55.0015 84.8669 54.7029C84.8669 54.3669 84.7896 54.0922 84.6349 53.8789C84.4803 53.6655 84.2749 53.4869 84.0189 53.3429C83.7629 53.1989 83.4723 53.0762 83.1469 52.9749C82.8216 52.8735 82.4883 52.7695 82.1469 52.6629C81.8056 52.5509 81.4723 52.4229 81.1469 52.2789C80.8216 52.1349 80.5309 51.9482 80.2749 51.7189C80.0189 51.4842 79.8136 51.1935 79.6589 50.8469C79.5043 50.4949 79.4269 50.0629 79.4269 49.5509C79.4269 49.1402 79.5069 48.7429 79.6669 48.3589C79.8269 47.9749 80.0589 47.6362 80.3629 47.3429C80.6723 47.0442 81.0509 46.8069 81.4989 46.6309C81.9469 46.4495 82.4589 46.3589 83.0349 46.3589C83.6803 46.3589 84.2723 46.4629 84.8109 46.6709C85.3549 46.8735 85.8269 47.1669 86.2269 47.5509L85.8109 48.3589ZM90.4347 58.1029C89.7787 58.1029 89.272 57.9189 88.9147 57.5509C88.5627 57.1829 88.3867 56.6575 88.3867 55.9749V51.1109H87.4427C87.352 51.1109 87.2747 51.0842 87.2107 51.0309C87.152 50.9722 87.1227 50.8869 87.1227 50.7749V50.1429L88.4427 49.9589L88.7947 47.5349C88.816 47.4442 88.856 47.3749 88.9147 47.3269C88.9787 47.2735 89.0587 47.2469 89.1547 47.2469H89.9467V49.9749H92.2507V51.1109H89.9467V55.8709C89.9467 56.1909 90.024 56.4309 90.1787 56.5909C90.3387 56.7455 90.5413 56.8229 90.7867 56.8229C90.9307 56.8229 91.0533 56.8042 91.1547 56.7669C91.2613 56.7295 91.352 56.6895 91.4267 56.6469C91.5013 56.5989 91.5653 56.5562 91.6187 56.5189C91.672 56.4815 91.72 56.4629 91.7627 56.4629C91.816 56.4629 91.856 56.4762 91.8827 56.5029C91.9147 56.5242 91.9467 56.5615 91.9787 56.6149L92.4427 57.3669C92.1867 57.6015 91.8827 57.7829 91.5307 57.9109C91.1787 58.0389 90.8133 58.1029 90.4347 58.1029ZM95.1596 51.4069C95.4209 50.8735 95.7356 50.4549 96.1036 50.1509C96.4716 49.8469 96.9142 49.6949 97.4316 49.6949C97.6076 49.6949 97.7729 49.7162 97.9276 49.7589C98.0876 49.7962 98.2262 49.8549 98.3436 49.9349L98.2396 51.1109C98.2022 51.2549 98.1142 51.3269 97.9756 51.3269C97.9009 51.3269 97.7889 51.3135 97.6396 51.2869C97.4902 51.2549 97.3302 51.2389 97.1596 51.2389C96.9089 51.2389 96.6876 51.2762 96.4956 51.3509C96.3036 51.4202 96.1302 51.5269 95.9756 51.6709C95.8262 51.8095 95.6929 51.9829 95.5756 52.1909C95.4582 52.3935 95.3489 52.6255 95.2476 52.8869V57.9749H93.6876V49.8469H94.5836C94.7542 49.8469 94.8689 49.8789 94.9276 49.9429C94.9916 50.0015 95.0369 50.1082 95.0636 50.2629L95.1596 51.4069ZM104.634 53.0069C104.634 52.6975 104.589 52.4122 104.498 52.1509C104.413 51.8895 104.285 51.6629 104.114 51.4709C103.943 51.2789 103.735 51.1295 103.49 51.0229C103.245 50.9162 102.962 50.8629 102.642 50.8629C101.986 50.8629 101.469 51.0522 101.09 51.4309C100.717 51.8095 100.479 52.3349 100.378 53.0069H104.634ZM105.922 56.8149C105.73 57.0389 105.509 57.2335 105.258 57.3989C105.007 57.5589 104.741 57.6895 104.458 57.7909C104.175 57.8922 103.882 57.9669 103.578 58.0149C103.279 58.0629 102.983 58.0869 102.69 58.0869C102.13 58.0869 101.61 57.9935 101.13 57.8069C100.655 57.6149 100.242 57.3375 99.8901 56.9749C99.5434 56.6069 99.2714 56.1535 99.0741 55.6149C98.8821 55.0709 98.7861 54.4469 98.7861 53.7429C98.7861 53.1775 98.8741 52.6522 99.0501 52.1669C99.2261 51.6762 99.4767 51.2495 99.8021 50.8869C100.133 50.5242 100.535 50.2389 101.01 50.0309C101.485 49.8229 102.018 49.7189 102.61 49.7189C103.106 49.7189 103.562 49.8015 103.978 49.9669C104.399 50.1269 104.762 50.3615 105.066 50.6709C105.37 50.9802 105.607 51.3615 105.778 51.8149C105.954 52.2682 106.042 52.7855 106.042 53.3669C106.042 53.6069 106.015 53.7695 105.962 53.8549C105.909 53.9349 105.81 53.9749 105.666 53.9749H100.338C100.354 54.4602 100.423 54.8842 100.546 55.2469C100.669 55.6042 100.837 55.9029 101.05 56.1429C101.269 56.3829 101.527 56.5615 101.826 56.6789C102.125 56.7962 102.458 56.8549 102.826 56.8549C103.173 56.8549 103.471 56.8149 103.722 56.7349C103.978 56.6549 104.197 56.5695 104.378 56.4789C104.565 56.3829 104.719 56.2949 104.842 56.2149C104.97 56.1349 105.082 56.0949 105.178 56.0949C105.306 56.0949 105.405 56.1429 105.474 56.2389L105.922 56.8149ZM112.087 54.3669C111.452 54.3882 110.913 54.4389 110.471 54.5189C110.028 54.5935 109.668 54.6949 109.391 54.8229C109.113 54.9509 108.913 55.1029 108.791 55.2789C108.668 55.4495 108.607 55.6415 108.607 55.8549C108.607 56.0575 108.639 56.2335 108.703 56.3829C108.772 56.5269 108.863 56.6469 108.975 56.7429C109.092 56.8335 109.228 56.9002 109.383 56.9429C109.537 56.9855 109.705 57.0069 109.887 57.0069C110.127 57.0069 110.345 56.9829 110.543 56.9349C110.745 56.8869 110.935 56.8202 111.111 56.7349C111.287 56.6442 111.455 56.5349 111.615 56.4069C111.775 56.2789 111.932 56.1322 112.087 55.9669V54.3669ZM107.511 50.9829C107.964 50.5509 108.455 50.2282 108.983 50.0149C109.516 49.8015 110.1 49.6949 110.735 49.6949C111.199 49.6949 111.609 49.7722 111.967 49.9269C112.324 50.0762 112.625 50.2869 112.871 50.5589C113.116 50.8309 113.3 51.1562 113.423 51.5349C113.551 51.9135 113.615 52.3322 113.615 52.7909V57.9749H112.919C112.764 57.9749 112.647 57.9509 112.567 57.9029C112.487 57.8495 112.423 57.7535 112.375 57.6149L112.207 56.9029C111.999 57.0949 111.793 57.2655 111.591 57.4149C111.388 57.5589 111.175 57.6842 110.951 57.7909C110.732 57.8922 110.497 57.9695 110.247 58.0229C109.996 58.0762 109.719 58.1029 109.415 58.1029C109.095 58.1029 108.793 58.0602 108.511 57.9749C108.233 57.8842 107.991 57.7482 107.783 57.5669C107.575 57.3855 107.409 57.1589 107.287 56.8869C107.169 56.6149 107.111 56.2975 107.111 55.9349C107.111 55.6149 107.196 55.3082 107.367 55.0149C107.543 54.7162 107.825 54.4495 108.215 54.2149C108.609 53.9802 109.121 53.7882 109.751 53.6389C110.385 53.4895 111.164 53.4042 112.087 53.3829V52.7909C112.087 52.1775 111.956 51.7189 111.695 51.4149C111.433 51.1109 111.049 50.9589 110.543 50.9589C110.201 50.9589 109.913 51.0015 109.679 51.0869C109.449 51.1722 109.249 51.2682 109.079 51.3749C108.913 51.4762 108.767 51.5695 108.639 51.6549C108.516 51.7402 108.388 51.7829 108.255 51.7829C108.148 51.7829 108.055 51.7535 107.975 51.6949C107.9 51.6362 107.839 51.5669 107.791 51.4869L107.511 50.9829ZM115.703 57.9749V49.8469H116.639C116.858 49.8469 116.994 49.9509 117.047 50.1589L117.159 50.9349C117.458 50.5775 117.789 50.2869 118.151 50.0629C118.519 49.8335 118.949 49.7189 119.439 49.7189C119.978 49.7189 120.415 49.8682 120.751 50.1669C121.087 50.4602 121.333 50.8602 121.487 51.3669C121.605 51.0789 121.757 50.8309 121.943 50.6229C122.13 50.4149 122.338 50.2442 122.567 50.1109C122.797 49.9775 123.039 49.8789 123.295 49.8149C123.557 49.7509 123.821 49.7189 124.087 49.7189C124.519 49.7189 124.903 49.7882 125.239 49.9269C125.581 50.0602 125.869 50.2575 126.103 50.5189C126.338 50.7802 126.517 51.1029 126.639 51.4869C126.762 51.8709 126.823 52.3082 126.823 52.7989V57.9749H125.255V52.7989C125.255 52.1909 125.122 51.7322 124.855 51.4229C124.594 51.1135 124.21 50.9589 123.703 50.9589C123.479 50.9589 123.266 50.9989 123.063 51.0789C122.861 51.1535 122.682 51.2682 122.527 51.4229C122.378 51.5775 122.258 51.7695 122.167 51.9989C122.082 52.2282 122.039 52.4949 122.039 52.7989V57.9749H120.471V52.7989C120.471 52.1695 120.346 51.7055 120.095 51.4069C119.845 51.1082 119.477 50.9589 118.991 50.9589C118.655 50.9589 118.343 51.0469 118.055 51.2229C117.767 51.3989 117.503 51.6389 117.263 51.9429V57.9749H115.703ZM130.554 49.8469V57.9749H128.994V49.8469H130.554ZM130.85 47.3349C130.85 47.4789 130.821 47.6175 130.762 47.7509C130.703 47.8789 130.623 47.9935 130.522 48.0949C130.426 48.1909 130.311 48.2682 130.178 48.3269C130.045 48.3802 129.906 48.4069 129.762 48.4069C129.618 48.4069 129.482 48.3802 129.354 48.3269C129.226 48.2682 129.111 48.1909 129.01 48.0949C128.914 47.9935 128.837 47.8789 128.778 47.7509C128.725 47.6175 128.698 47.4789 128.698 47.3349C128.698 47.1855 128.725 47.0469 128.778 46.9189C128.837 46.7855 128.914 46.6709 129.01 46.5749C129.111 46.4735 129.226 46.3962 129.354 46.3429C129.482 46.2842 129.618 46.2549 129.762 46.2549C129.906 46.2549 130.045 46.2842 130.178 46.3429C130.311 46.3962 130.426 46.4735 130.522 46.5749C130.623 46.6709 130.703 46.7855 130.762 46.9189C130.821 47.0469 130.85 47.1855 130.85 47.3349ZM134.277 50.9749C134.453 50.7882 134.637 50.6175 134.829 50.4629C135.021 50.3082 135.223 50.1775 135.437 50.0709C135.655 49.9589 135.887 49.8735 136.133 49.8149C136.383 49.7509 136.65 49.7189 136.933 49.7189C137.381 49.7189 137.773 49.7935 138.109 49.9429C138.45 50.0922 138.735 50.3029 138.965 50.5749C139.194 50.8415 139.367 51.1642 139.485 51.5429C139.602 51.9215 139.661 52.3402 139.661 52.7989V57.9749H138.093V52.7989C138.093 52.2175 137.959 51.7669 137.693 51.4469C137.426 51.1215 137.018 50.9589 136.469 50.9589C136.069 50.9589 135.693 51.0549 135.341 51.2469C134.994 51.4335 134.671 51.6895 134.373 52.0149V57.9749H132.813V49.8469H133.749C133.967 49.8469 134.103 49.9509 134.157 50.1589L134.277 50.9749ZM144.622 53.9189C144.899 53.9189 145.142 53.8815 145.35 53.8069C145.563 53.7322 145.739 53.6282 145.878 53.4949C146.022 53.3562 146.128 53.1909 146.198 52.9989C146.272 52.8069 146.31 52.5962 146.31 52.3669C146.31 51.8975 146.166 51.5242 145.878 51.2469C145.595 50.9642 145.176 50.8229 144.622 50.8229C144.072 50.8229 143.654 50.9642 143.366 51.2469C143.083 51.5242 142.942 51.8975 142.942 52.3669C142.942 52.5962 142.976 52.8069 143.046 52.9989C143.12 53.1855 143.227 53.3482 143.366 53.4869C143.51 53.6202 143.686 53.7269 143.894 53.8069C144.107 53.8815 144.35 53.9189 144.622 53.9189ZM147.11 58.3989C147.11 58.2069 147.056 58.0549 146.95 57.9429C146.843 57.8255 146.696 57.7349 146.51 57.6709C146.328 57.6015 146.115 57.5535 145.87 57.5269C145.624 57.4949 145.366 57.4709 145.094 57.4549C144.827 57.4389 144.552 57.4255 144.27 57.4149C143.987 57.3989 143.715 57.3722 143.454 57.3349C143.176 57.4735 142.947 57.6415 142.766 57.8389C142.59 58.0362 142.502 58.2682 142.502 58.5349C142.502 58.7055 142.544 58.8655 142.63 59.0149C142.72 59.1642 142.856 59.2922 143.038 59.3989C143.224 59.5109 143.456 59.5962 143.734 59.6549C144.016 59.7189 144.352 59.7509 144.742 59.7509C145.126 59.7509 145.464 59.7162 145.758 59.6469C146.051 59.5829 146.296 59.4895 146.494 59.3669C146.696 59.2495 146.848 59.1082 146.95 58.9429C147.056 58.7775 147.11 58.5962 147.11 58.3989ZM148.694 50.1509V50.7349C148.694 50.9269 148.574 51.0469 148.334 51.0949L147.462 51.2229C147.536 51.3882 147.595 51.5642 147.638 51.7509C147.68 51.9322 147.702 52.1242 147.702 52.3269C147.702 52.7269 147.624 53.0895 147.47 53.4149C147.315 53.7349 147.102 54.0095 146.83 54.2389C146.558 54.4682 146.232 54.6442 145.854 54.7669C145.48 54.8895 145.07 54.9509 144.622 54.9509C144.254 54.9509 143.91 54.9109 143.59 54.8309C143.43 54.9269 143.307 55.0335 143.222 55.1509C143.142 55.2629 143.102 55.3749 143.102 55.4869C143.102 55.6735 143.179 55.8122 143.334 55.9029C143.494 55.9935 143.699 56.0602 143.95 56.1029C144.206 56.1402 144.496 56.1642 144.822 56.1749C145.152 56.1855 145.486 56.2042 145.822 56.2309C146.163 56.2522 146.496 56.2949 146.822 56.3589C147.152 56.4175 147.443 56.5162 147.694 56.6549C147.95 56.7882 148.155 56.9749 148.31 57.2149C148.47 57.4495 148.55 57.7562 148.55 58.1349C148.55 58.4869 148.462 58.8282 148.286 59.1589C148.115 59.4895 147.864 59.7829 147.534 60.0389C147.203 60.2949 146.8 60.5002 146.326 60.6549C145.851 60.8095 145.312 60.8869 144.71 60.8869C144.107 60.8869 143.582 60.8282 143.134 60.7109C142.691 60.5935 142.32 60.4362 142.022 60.2389C141.728 60.0415 141.507 59.8122 141.358 59.5509C141.214 59.2895 141.142 59.0175 141.142 58.7349C141.142 58.3402 141.264 58.0069 141.51 57.7349C141.755 57.4575 142.094 57.2415 142.526 57.0869C142.291 56.9802 142.104 56.8362 141.966 56.6549C141.827 56.4682 141.758 56.2229 141.758 55.9189C141.758 55.8015 141.779 55.6815 141.822 55.5589C141.864 55.4309 141.928 55.3055 142.014 55.1829C142.104 55.0549 142.214 54.9349 142.342 54.8229C142.475 54.7109 142.627 54.6095 142.798 54.5189C142.398 54.2949 142.083 53.9989 141.854 53.6309C141.624 53.2575 141.51 52.8229 141.51 52.3269C141.51 51.9269 141.587 51.5669 141.742 51.2469C141.896 50.9269 142.11 50.6522 142.382 50.4229C142.659 50.1935 142.987 50.0175 143.366 49.8949C143.75 49.7722 144.168 49.7109 144.622 49.7109C145.326 49.7109 145.931 49.8575 146.438 50.1509H148.694ZM157.972 52.3989C158.404 52.3989 158.783 52.3429 159.108 52.2309C159.439 52.1189 159.713 51.9615 159.932 51.7589C160.156 51.5509 160.324 51.3055 160.436 51.0229C160.548 50.7349 160.604 50.4175 160.604 50.0709C160.604 49.3722 160.385 48.8229 159.948 48.4229C159.516 48.0229 158.857 47.8229 157.972 47.8229H156.196V52.3989H157.972ZM157.972 46.4869C158.708 46.4869 159.348 46.5722 159.892 46.7429C160.436 46.9135 160.887 47.1562 161.244 47.4709C161.601 47.7802 161.865 48.1562 162.036 48.5989C162.212 49.0415 162.3 49.5322 162.3 50.0709C162.3 50.6095 162.207 51.1055 162.02 51.5589C161.833 52.0069 161.559 52.3935 161.196 52.7189C160.833 53.0442 160.38 53.2975 159.836 53.4789C159.297 53.6549 158.676 53.7429 157.972 53.7429H156.196V57.9749H154.492V46.4869H157.972ZM165.413 46.1669V57.9749H163.845V46.1669H165.413ZM172.009 54.3669C171.374 54.3882 170.835 54.4389 170.393 54.5189C169.95 54.5935 169.59 54.6949 169.313 54.8229C169.035 54.9509 168.835 55.1029 168.713 55.2789C168.59 55.4495 168.529 55.6415 168.529 55.8549C168.529 56.0575 168.561 56.2335 168.625 56.3829C168.694 56.5269 168.785 56.6469 168.897 56.7429C169.014 56.8335 169.15 56.9002 169.305 56.9429C169.459 56.9855 169.627 57.0069 169.809 57.0069C170.049 57.0069 170.267 56.9829 170.465 56.9349C170.667 56.8869 170.857 56.8202 171.033 56.7349C171.209 56.6442 171.377 56.5349 171.537 56.4069C171.697 56.2789 171.854 56.1322 172.009 55.9669V54.3669ZM167.433 50.9829C167.886 50.5509 168.377 50.2282 168.905 50.0149C169.438 49.8015 170.022 49.6949 170.657 49.6949C171.121 49.6949 171.531 49.7722 171.889 49.9269C172.246 50.0762 172.547 50.2869 172.793 50.5589C173.038 50.8309 173.222 51.1562 173.345 51.5349C173.473 51.9135 173.537 52.3322 173.537 52.7909V57.9749H172.841C172.686 57.9749 172.569 57.9509 172.489 57.9029C172.409 57.8495 172.345 57.7535 172.297 57.6149L172.129 56.9029C171.921 57.0949 171.715 57.2655 171.513 57.4149C171.31 57.5589 171.097 57.6842 170.873 57.7909C170.654 57.8922 170.419 57.9695 170.169 58.0229C169.918 58.0762 169.641 58.1029 169.337 58.1029C169.017 58.1029 168.715 58.0602 168.433 57.9749C168.155 57.8842 167.913 57.7482 167.705 57.5669C167.497 57.3855 167.331 57.1589 167.209 56.8869C167.091 56.6149 167.033 56.2975 167.033 55.9349C167.033 55.6149 167.118 55.3082 167.289 55.0149C167.465 54.7162 167.747 54.4495 168.137 54.2149C168.531 53.9802 169.043 53.7882 169.673 53.6389C170.307 53.4895 171.086 53.4042 172.009 53.3829V52.7909C172.009 52.1775 171.878 51.7189 171.617 51.4149C171.355 51.1109 170.971 50.9589 170.465 50.9589C170.123 50.9589 169.835 51.0015 169.601 51.0869C169.371 51.1722 169.171 51.2682 169.001 51.3749C168.835 51.4762 168.689 51.5695 168.561 51.6549C168.438 51.7402 168.31 51.7829 168.177 51.7829C168.07 51.7829 167.977 51.7535 167.897 51.6949C167.822 51.6362 167.761 51.5669 167.713 51.4869L167.433 50.9829ZM181.46 57.9749V51.1109H177.572V55.8709C177.572 56.1909 177.649 56.4309 177.804 56.5909C177.964 56.7455 178.166 56.8229 178.412 56.8229C178.556 56.8229 178.678 56.8042 178.78 56.7669C178.886 56.7295 178.977 56.6895 179.052 56.6469C179.126 56.5989 179.19 56.5562 179.244 56.5189C179.297 56.4815 179.345 56.4629 179.388 56.4629C179.441 56.4629 179.481 56.4762 179.508 56.5029C179.54 56.5242 179.572 56.5615 179.604 56.6149L180.068 57.3669C179.812 57.6015 179.508 57.7829 179.156 57.9109C178.804 58.0389 178.438 58.1029 178.06 58.1029C177.404 58.1029 176.897 57.9189 176.54 57.5509C176.188 57.1829 176.012 56.6575 176.012 55.9749V51.1109H175.068C174.977 51.1109 174.9 51.0842 174.836 51.0309C174.777 50.9722 174.748 50.8869 174.748 50.7749V50.1429L176.068 49.9589L176.42 47.5349C176.441 47.4442 176.481 47.3749 176.54 47.3269C176.604 47.2735 176.684 47.2469 176.78 47.2469H177.572V49.9749H181.46V49.2389C181.46 48.7749 181.526 48.3615 181.66 47.9989C181.793 47.6362 181.982 47.3295 182.228 47.0789C182.478 46.8229 182.78 46.6309 183.132 46.5029C183.484 46.3695 183.878 46.3029 184.316 46.3029C184.673 46.3029 185.012 46.3562 185.332 46.4629L185.292 47.2469C185.286 47.3162 185.265 47.3695 185.228 47.4069C185.196 47.4389 185.148 47.4629 185.084 47.4789C185.02 47.4949 184.945 47.5055 184.86 47.5109C184.774 47.5109 184.678 47.5109 184.572 47.5109C184.332 47.5109 184.113 47.5402 183.916 47.5989C183.718 47.6575 183.55 47.7562 183.412 47.8949C183.273 48.0335 183.166 48.2175 183.092 48.4469C183.017 48.6709 182.98 48.9509 182.98 49.2869V49.9749H185.26V51.1109H183.028V57.9749H181.46ZM189.792 49.7189C190.39 49.7189 190.928 49.8175 191.408 50.0149C191.894 50.2069 192.304 50.4869 192.64 50.8549C192.982 51.2175 193.243 51.6575 193.424 52.1749C193.606 52.6869 193.696 53.2629 193.696 53.9029C193.696 54.5429 193.606 55.1215 193.424 55.6389C193.243 56.1562 192.982 56.5962 192.64 56.9589C192.304 57.3215 191.894 57.6015 191.408 57.7989C190.928 57.9909 190.39 58.0869 189.792 58.0869C189.19 58.0869 188.646 57.9909 188.16 57.7989C187.68 57.6015 187.27 57.3215 186.928 56.9589C186.587 56.5962 186.323 56.1562 186.136 55.6389C185.955 55.1215 185.864 54.5429 185.864 53.9029C185.864 53.2629 185.955 52.6869 186.136 52.1749C186.323 51.6575 186.587 51.2175 186.928 50.8549C187.27 50.4869 187.68 50.2069 188.16 50.0149C188.646 49.8175 189.19 49.7189 189.792 49.7189ZM189.792 56.8709C190.56 56.8709 191.134 56.6122 191.512 56.0949C191.891 55.5775 192.08 54.8495 192.08 53.9109C192.08 52.9722 191.891 52.2442 191.512 51.7269C191.134 51.2042 190.56 50.9429 189.792 50.9429C189.014 50.9429 188.432 51.2042 188.048 51.7269C187.67 52.2442 187.48 52.9722 187.48 53.9109C187.48 54.8495 187.67 55.5775 188.048 56.0949C188.432 56.6122 189.014 56.8709 189.792 56.8709ZM196.91 51.4069C197.171 50.8735 197.486 50.4549 197.854 50.1509C198.222 49.8469 198.664 49.6949 199.182 49.6949C199.358 49.6949 199.523 49.7162 199.678 49.7589C199.838 49.7962 199.976 49.8549 200.094 49.9349L199.99 51.1109C199.952 51.2549 199.864 51.3269 199.726 51.3269C199.651 51.3269 199.539 51.3135 199.39 51.2869C199.24 51.2549 199.08 51.2389 198.91 51.2389C198.659 51.2389 198.438 51.2762 198.246 51.3509C198.054 51.4202 197.88 51.5269 197.726 51.6709C197.576 51.8095 197.443 51.9829 197.326 52.1909C197.208 52.3935 197.099 52.6255 196.998 52.8869V57.9749H195.438V49.8469H196.334C196.504 49.8469 196.619 49.8789 196.678 49.9429C196.742 50.0015 196.787 50.1082 196.814 50.2629L196.91 51.4069ZM201.297 57.9749V49.8469H202.233C202.452 49.8469 202.588 49.9509 202.641 50.1589L202.753 50.9349C203.052 50.5775 203.382 50.2869 203.745 50.0629C204.113 49.8335 204.542 49.7189 205.033 49.7189C205.572 49.7189 206.009 49.8682 206.345 50.1669C206.681 50.4602 206.926 50.8602 207.081 51.3669C207.198 51.0789 207.35 50.8309 207.537 50.6229C207.724 50.4149 207.932 50.2442 208.161 50.1109C208.39 49.9775 208.633 49.8789 208.889 49.8149C209.15 49.7509 209.414 49.7189 209.681 49.7189C210.113 49.7189 210.497 49.7882 210.833 49.9269C211.174 50.0602 211.462 50.2575 211.697 50.5189C211.932 50.7802 212.11 51.1029 212.233 51.4869C212.356 51.8709 212.417 52.3082 212.417 52.7989V57.9749H210.849V52.7989C210.849 52.1909 210.716 51.7322 210.449 51.4229C210.188 51.1135 209.804 50.9589 209.297 50.9589C209.073 50.9589 208.86 50.9989 208.657 51.0789C208.454 51.1535 208.276 51.2682 208.121 51.4229C207.972 51.5775 207.852 51.7695 207.761 51.9989C207.676 52.2282 207.633 52.4949 207.633 52.7989V57.9749H206.065V52.7989C206.065 52.1695 205.94 51.7055 205.689 51.4069C205.438 51.1082 205.07 50.9589 204.585 50.9589C204.249 50.9589 203.937 51.0469 203.649 51.2229C203.361 51.3989 203.097 51.6389 202.857 51.9429V57.9749H201.297Z" fill="#191919"/>
<circle cx="34.9824" cy="34.9824" r="31.4824" fill="#1341E8" stroke="#F2BF27" stroke-width="7"/>
<g filter="url(#filter0_d)">
<path d="M28.6475 23.8771L46.0893 34.9818L28.6475 46.0865V23.8755V23.8771Z" fill="#F4F4F4"/>
</g>
<defs>
<filter id="filter0_d" x="27.6475" y="22.8755" width="23.4419" height="28.211" filterUnits="userSpaceOnUse" color-interpolation-filters="sRGB">
<feFlood flood-opacity="0" result="BackgroundImageFix"/>
<feColorMatrix in="SourceAlpha" type="matrix" values="0 0 0 0 0 0 0 0 0 0 0 0 0 0 0 0 0 0 127 0"/>
<feOffset dx="2" dy="2"/>
<feGaussianBlur stdDeviation="1.5"/>
<feColorMatrix type="matrix" values="0 0 0 0 0 0 0 0 0 0 0 0 0 0 0 0 0 0 0.25 0"/>
<feBlend mode="normal" in2="BackgroundImageFix" result="effect1_dropShadow"/>
<feBlend mode="normal" in="SourceGraphic" in2="effect1_dropShadow" result="shape"/>
</filter>
</defs>
</svg>
