<?xml version="1.0" standalone="no"?>
<!DOCTYPE svg PUBLIC "-//W3C//DTD SVG 20010904//EN"
 "http://www.w3.org/TR/2001/REC-SVG-20010904/DTD/svg10.dtd">
<svg version="1.0" xmlns="http://www.w3.org/2000/svg"
 width="128.000000pt" height="128.000000pt" viewBox="0 0 128.000000 128.000000"
 preserveAspectRatio="xMidYMid meet">

<g transform="translate(0.000000,128.000000) scale(0.100000,-0.100000)"
fill="#000000" stroke="none">
<path d="M606 1264 c-14 -14 -16 -69 -16 -460 0 -244 -2 -444 -4 -444 -2 0
-23 7 -46 15 -103 36 -231 7 -297 -69 -39 -43 -47 -72 -40 -132 6 -58 48 -110
113 -144 40 -21 63 -25 129 -25 70 0 87 4 132 29 29 16 64 46 80 69 l28 40 3
314 3 313 40 -20 c83 -43 149 -120 174 -203 11 -36 10 -46 -3 -68 -18 -32 -10
-76 16 -81 33 -7 51 4 82 53 50 76 72 145 77 239 9 151 -33 223 -197 341 -107
76 -152 121 -178 178 -32 70 -63 89 -96 55z"/>
</g>
</svg>
